<?xml version="1.0" encoding="UTF-8"?>
<svg version="1.1" xmlns="http://www.w3.org/2000/svg" width="1280" height="311">
<path d="M0 0 C1.44590446 -0.00073602 2.89181147 -0.00541104 4.33769226 -0.01371765 C8.25358972 -0.02482255 12.16707297 0.01978077 16.08252239 0.07505822 C20.18011579 0.1239617 24.27770994 0.12330194 28.37554932 0.12846375 C35.2522543 0.14410139 42.12805636 0.19283877 49.00439453 0.26464844 C58.71004459 0.3658925 68.41520725 0.40337551 78.12130499 0.43010199 C84.83975092 0.45112393 91.55812339 0.4881379 98.27648258 0.52766013 C99.90687545 0.53707614 101.53727153 0.54595163 103.16767025 0.55429482 C107.81160855 0.57835296 112.45524738 0.61221926 117.09897804 0.66261101 C118.50748858 0.67647662 119.91603669 0.68697811 121.32459831 0.69393158 C123.24167848 0.70410047 125.15867244 0.72785946 127.07562256 0.75239563 C128.68721064 0.7671643 128.68721064 0.7671643 130.33135605 0.78223133 C132.85644531 1.0534668 132.85644531 1.0534668 134.85644531 3.0534668 C133.50263181 5.01204506 132.1484053 6.97033567 130.79394531 8.9284668 C130.1793042 9.81767822 130.1793042 9.81767822 129.55224609 10.72485352 C127.13151579 14.22355792 124.69003139 17.706204 122.23144531 21.1784668 C119.92893945 24.45874912 117.73771866 27.78459076 115.60644531 31.1784668 C109.82006943 40.36629336 103.54920703 49.24325513 97.29394531 58.1159668 C92.68703026 64.67533633 88.28634137 71.37398838 83.85644531 78.0534668 C82.12870552 80.6585845 80.39930038 83.26258565 78.66894531 85.8659668 C78.28955811 86.43919678 77.9101709 87.01242676 77.51928711 87.60302734 C75.22800182 91.04998546 72.8821709 94.4530702 70.50097656 97.83862305 C66.83045025 103.06574183 63.26888036 108.36065236 59.73144531 113.6784668 C59.1371875 114.56791992 58.54292969 115.45737305 57.93066406 116.3737793 C54.79957695 121.07386591 51.75167184 125.79014173 48.90380859 130.66821289 C48.55817871 131.12534668 48.21254883 131.58248047 47.85644531 132.0534668 C47.19644531 132.0534668 46.53644531 132.0534668 45.85644531 132.0534668 C45.60894531 132.7340918 45.36144531 133.4147168 45.10644531 134.1159668 C43.61446624 137.62211763 41.7880902 140.76967048 39.85644531 144.0534668 C39.19644531 144.0534668 38.53644531 144.0534668 37.85644531 144.0534668 C37.60894531 144.73924805 37.36144531 145.4250293 37.10644531 146.1315918 C35.6445419 149.54879103 33.81013796 152.65349133 31.85644531 155.8034668 C31.50066406 156.39256836 31.14488281 156.98166992 30.77832031 157.58862305 C28.10374598 161.92981646 28.10374598 161.92981646 25.85644531 163.0534668 C23.91790222 163.14730931 21.97606026 163.17537448 20.0352478 163.17372131 C18.79561783 163.17509598 17.55598785 163.17647064 16.27879333 163.17788696 C14.89761329 163.17434759 13.51643348 163.17071278 12.13525391 163.16699219 C10.68670148 163.16671024 9.2381489 163.1668682 7.78959656 163.16743469 C3.84974555 163.16772236 -0.09007519 163.16183051 -4.02991915 163.15486073 C-8.14456817 163.14862218 -12.25921783 163.148023 -16.37387085 163.14683533 C-24.16886536 163.1437235 -31.96384589 163.1355121 -39.75883424 163.12548584 C-48.63174495 163.11432011 -57.50465632 163.10881309 -66.3775723 163.1037904 C-84.63290769 163.09332937 -102.88823007 163.07573278 -121.14355469 163.0534668 C-121.14355469 159.71731457 -120.69149684 159.01724264 -118.87011719 156.3503418 C-118.37970947 155.62443848 -117.88930176 154.89853516 -117.3840332 154.15063477 C-116.58437134 152.98878662 -116.58437134 152.98878662 -115.76855469 151.8034668 C-114.66562676 150.17590555 -113.56276321 148.54830069 -112.45996094 146.9206543 C-111.90324707 146.10435547 -111.3465332 145.28805664 -110.77294922 144.44702148 C-108.39584834 140.95509804 -106.04921878 137.44321293 -103.70605469 133.9284668 C-103.29500488 133.31511475 -102.88395508 132.7017627 -102.46044922 132.06982422 C-100.27357272 128.79670018 -98.17042304 125.49014122 -96.14355469 122.1159668 C-95.48355469 121.1053418 -94.82355469 120.0947168 -94.14355469 119.0534668 C-93.48355469 119.0534668 -92.82355469 119.0534668 -92.14355469 119.0534668 C-91.90636719 118.37026367 -91.66917969 117.68706055 -91.42480469 116.9831543 C-89.87389686 113.43687116 -87.82130956 110.35833017 -85.64355469 107.1784668 C-84.73583838 105.83612992 -83.82829093 104.49367884 -82.92089844 103.15112305 C-82.45796387 102.46937012 -81.9950293 101.78761719 -81.51806641 101.08520508 C-79.80483556 98.55278819 -78.11507571 96.00528304 -76.42626953 93.45654297 C-72.05632782 86.8649082 -67.60173101 80.33512873 -63.11083984 73.82543945 C-59.05710289 67.94385656 -55.09002513 62.00752278 -51.14355469 56.0534668 C-49.51998507 53.61501264 -47.8942774 51.17798586 -46.26855469 48.7409668 C-43.73216745 44.93881265 -41.19713387 41.13581346 -38.67089844 37.3269043 C-33.87033243 30.09561175 -29.01203788 22.90843649 -24.07348633 15.77050781 C-23.64801514 15.1548999 -23.22254395 14.53929199 -22.78417969 13.9050293 C-22.36893162 13.32746541 -21.95368355 12.74990152 -21.5258522 12.1548357 C-20.08718959 10.0791992 -20.08718959 10.0791992 -19.0704155 7.74562359 C-14.73367672 -0.7525874 -8.73841252 -0.19441102 0 0 Z " fill="#0079FE" transform="translate(162.1435546875,38.946533203125)"/>
<path d="M0 0 C2.54156019 0.0261354 5.08319127 0.04605271 7.62484741 0.06002808 C13.6118365 0.10787065 19.59448777 0.21796751 25.57974374 0.35892093 C32.39916166 0.51599484 39.21876287 0.59252265 46.03954244 0.66265702 C60.05700661 0.80857695 74.07127289 1.05444617 88.0859375 1.3671875 C87.34088493 5.65903368 86.01887191 8.49836837 83.6484375 12.1796875 C83.03097656 13.15550781 82.41351563 14.13132813 81.77734375 15.13671875 C80.94009766 16.24080078 80.94009766 16.24080078 80.0859375 17.3671875 C79.4259375 17.3671875 78.7659375 17.3671875 78.0859375 17.3671875 C77.84875 18.05039063 77.6115625 18.73359375 77.3671875 19.4375 C75.81628598 22.98376871 73.76372086 26.06234892 71.5859375 29.2421875 C70.68342224 30.57670695 69.7810836 31.91134585 68.87890625 33.24609375 C68.41661621 33.92687988 67.95432617 34.60766602 67.47802734 35.30908203 C65.69088344 37.95124673 63.92826846 40.60926409 62.16601562 43.26806641 C58.49084661 48.81054973 54.75290723 54.29689081 50.91796875 59.73046875 C47.32585566 64.90035433 43.86852914 70.16143277 40.38867188 75.40722656 C39.10960631 77.33157783 37.82535391 79.25234768 36.5390625 81.171875 C35.7004922 82.42446 34.86195032 83.67706402 34.0234375 84.9296875 C33.61440186 85.53973633 33.20536621 86.14978516 32.78393555 86.77832031 C30.65479927 89.96675563 28.56541426 93.17435722 26.52734375 96.421875 C26.11685791 97.07341553 25.70637207 97.72495605 25.28344727 98.39624023 C24.50025308 99.64440107 23.72312663 100.89639521 22.95288086 102.15258789 C22.04941385 103.59156671 21.07411878 104.98501152 20.0859375 106.3671875 C19.4259375 106.3671875 18.7659375 106.3671875 18.0859375 106.3671875 C17.73015625 107.39199219 17.73015625 107.39199219 17.3671875 108.4375 C15.81627968 111.98378313 13.76369238 115.06232413 11.5859375 118.2421875 C10.6782212 119.58452438 9.77067374 120.92697546 8.86328125 122.26953125 C8.40034668 122.95128418 7.93741211 123.63303711 7.46044922 124.33544922 C5.74691389 126.86831618 4.05679763 129.4162313 2.36791992 131.96557617 C-1.62149524 137.98204553 -5.65642615 143.96755485 -9.7265625 149.9296875 C-10.17056396 150.58445068 -10.61456543 151.23921387 -11.07202148 151.91381836 C-11.50071533 152.53909424 -11.92940918 153.16437012 -12.37109375 153.80859375 C-12.9276062 154.62372437 -12.9276062 154.62372437 -13.49536133 155.45532227 C-14.19761841 156.40169556 -14.19761841 156.40169556 -14.9140625 157.3671875 C-15.46693939 158.38257095 -16.01981628 159.39795441 -16.58944702 160.44410706 C-18.60051464 162.81185096 -19.71875205 163.33041645 -22.81404781 163.913167 C-26.72533255 164.10879771 -30.61324825 164.1095723 -34.52661133 164.04833984 C-36.03471814 164.04664674 -37.5428299 164.04759869 -39.05093384 164.05099487 C-43.13978462 164.05271558 -47.22757815 164.01745473 -51.31618333 163.97555113 C-55.59091717 163.93802898 -59.86567559 163.93451762 -64.14054871 163.92739868 C-72.23316435 163.90875411 -80.32529335 163.85952263 -88.41769475 163.79930174 C-97.63159315 163.73222429 -106.84551486 163.69924455 -116.05959666 163.66912913 C-135.01136112 163.60642301 -153.96267268 163.5008958 -172.9140625 163.3671875 C-172.27987945 159.0509841 -171.62302155 156.42301345 -168.9765625 152.9296875 C-165.87633731 148.70729491 -162.92309217 144.42550817 -160.0390625 140.0546875 C-156.21751132 134.29030436 -152.31119771 128.59263828 -148.3515625 122.921875 C-146.4562294 120.18257624 -144.61683375 117.40980644 -142.7890625 114.625 C-142.25071777 113.80684814 -141.71237305 112.98869629 -141.15771484 112.14575195 C-140.09572616 110.52778096 -139.03858488 108.90661567 -137.98681641 107.28198242 C-137.50132324 106.54310791 -137.01583008 105.8042334 -136.515625 105.04296875 C-135.87101318 104.0516394 -135.87101318 104.0516394 -135.21337891 103.0402832 C-133.9140625 101.3671875 -133.9140625 101.3671875 -130.9140625 99.3671875 C-128.02383736 99.24568098 -125.22189325 99.23456081 -122.3359375 99.3046875 C-120.60027122 99.31362591 -118.86459055 99.32005653 -117.12890625 99.32421875 C-114.397713 99.33844116 -111.67026444 99.36702409 -108.93994141 99.43896484 C-98.58993249 100.0927597 -98.58993249 100.0927597 -89.36523438 96.42578125 C-87.54600237 93.8280399 -86.24405578 91.24264645 -84.9140625 88.3671875 C-83.77898722 86.68565479 -82.61054468 85.02617254 -81.41015625 83.390625 C-77.85368763 78.30938866 -74.40542658 73.16010183 -70.9765625 67.9921875 C-70.36321045 67.07026611 -69.7498584 66.14834473 -69.11791992 65.19848633 C-66.61448649 61.43521783 -64.1142409 57.66984807 -61.6171875 53.90234375 C-57.49729842 47.69697363 -53.28904402 41.55857105 -49.05224609 35.43286133 C-46.49823993 31.72376591 -43.99654874 27.99145471 -41.58740234 24.18652344 C-40.50925517 22.49028398 -39.39932807 20.81432783 -38.28417969 19.1421814 C-36.7023605 16.71734618 -35.39436257 14.31811938 -34.20425415 11.68136597 C-27.04735735 -2.64660658 -14.24634005 -0.43005535 0 0 Z " fill="#302DCB" transform="translate(286.9140625,115.6328125)"/>
<path d="M0 0 C1.80404297 -0.02513672 1.80404297 -0.02513672 3.64453125 -0.05078125 C8.32668551 0.42930733 11.7614772 1.7881308 15 5.25 C17.36113413 9.35091717 17.36049493 13.37576331 17.50390625 18.046875 C17.54580078 19.34238281 17.58769531 20.63789063 17.63085938 21.97265625 C17.67066671 23.33593476 17.71037906 24.69921606 17.75 26.0625 C17.79322274 27.44141875 17.83683821 28.82032526 17.88085938 30.19921875 C17.98693958 33.5702119 18.0889985 36.94127826 18.1875 40.3125 C18.43346924 39.46324951 18.67943848 38.61399902 18.93286133 37.73901367 C22.86875097 24.49584745 28.82439076 8.83589147 41.1484375 1.078125 C45.09788988 -0.40481114 49.05404111 -0.32642582 53.1875 0.3125 C56.51722738 1.95697761 58.61935908 4.19597425 60.31787109 7.53393555 C61.38999676 10.95950047 61.5129612 13.99367848 61.6015625 17.58203125 C61.62092865 18.26303391 61.6402948 18.94403656 61.6602478 19.64567566 C61.71968132 21.80532593 61.766282 23.96503057 61.8125 26.125 C61.85071328 27.59572544 61.88976694 29.06642929 61.9296875 30.53710938 C62.02535183 34.12870789 62.10951575 37.72046913 62.1875 41.3125 C62.35765625 40.77471924 62.5278125 40.23693848 62.703125 39.68286133 C66.2765859 28.54787164 69.82074157 17.59292211 77.1875 8.3125 C77.8475 8.3125 78.5075 8.3125 79.1875 8.3125 C79.1875 7.6525 79.1875 6.9925 79.1875 6.3125 C79.8475 6.3125 80.5075 6.3125 81.1875 6.3125 C81.5175 5.3225 81.8475 4.3325 82.1875 3.3125 C86.08161437 -0.079148 89.87660222 -0.15507306 94.8203125 0.04296875 C98.15654071 0.42283632 99.75212345 0.94875217 102.1875 3.3125 C107.78525603 11.35612349 106.77367789 21.2807215 106.76171875 30.62109375 C106.77417737 32.39707306 106.78851531 34.17304008 106.80464172 35.94898987 C106.84250458 40.59897442 106.85782954 45.24874634 106.86743164 49.89886475 C106.88725205 57.36556431 106.94394849 64.83210336 106.99619484 72.29863167 C107.01155382 74.90559938 107.01873192 77.51248658 107.02433777 80.11949158 C107.03135039 81.70783529 107.03845102 83.29617862 107.0456543 84.88452148 C107.04486122 85.97461517 107.04486122 85.97461517 107.04405212 87.08673096 C107.01062575 90.82450684 107.01062575 90.82450684 108.1875 94.3125 C112.28490571 94.02663449 113.81847609 93.69052449 116.75 90.6875 C117.554375 89.90375 118.35875 89.12 119.1875 88.3125 C122 88.5 122 88.5 124.1875 89.3125 C124.54943928 94.40613332 123.06974806 96.46351997 119.95703125 100.3125 C112.83804234 108.35868614 112.83804234 108.35868614 107.3125 109.3125 C101.02453772 109.61656007 95.35532649 108.56310692 90.25 104.75 C83.25288103 97.76812309 84.84715596 85.99067263 84.7734375 76.77734375 C84.75469524 75.28803979 84.73511963 73.79874612 84.7147522 72.3094635 C84.66374746 68.41832581 84.62395389 64.52715381 84.58660889 60.63586426 C84.546369 56.65364314 84.49536856 52.67156081 84.4453125 48.68945312 C84.34892887 40.89723115 84.26440586 33.10494116 84.1875 25.3125 C82.5375 25.3125 80.8875 25.3125 79.1875 25.3125 C79.1875 25.9725 79.1875 26.6325 79.1875 27.3125 C78.5275 27.3125 77.8675 27.3125 77.1875 27.3125 C76.81625 28.2715625 76.81625 28.2715625 76.4375 29.25 C75.75954739 30.91098389 75.0675979 32.56768986 74.3046875 34.19140625 C71.25582889 40.70924178 69.20203957 47.41450068 67.1875 54.3125 C66.81625 55.488125 66.445 56.66375 66.0625 57.875 C63.23825007 68.97026759 62.63897158 80.1971004 62.08300781 91.57617188 C61.97986064 93.63722275 61.86550339 95.69742291 61.75 97.7578125 C61.68941406 98.96969238 61.62882813 100.18157227 61.56640625 101.43017578 C61.1875 104.3125 61.1875 104.3125 59.1875 106.3125 C57.41577148 106.92260742 57.41577148 106.92260742 55.30859375 107.41796875 C54.55255859 107.59650391 53.79652344 107.77503906 53.01757812 107.95898438 C52.22802734 108.13751953 51.43847656 108.31605469 50.625 108.5 C49.83158203 108.69013672 49.03816406 108.88027344 48.22070312 109.07617188 C46.22070425 109.53902388 44.2047435 109.93176895 42.1875 110.3125 C40.21720403 108.34220403 41.01307026 104.49031763 40.99804688 101.79516602 C40.98975357 101.00819336 40.98146027 100.2212207 40.97291565 99.41040039 C40.9554764 97.69596463 40.94032029 95.98150451 40.92713928 94.26703072 C40.90617677 91.55693846 40.87914864 88.84696842 40.85046387 86.13694763 C40.79066039 80.38301165 40.73856127 74.62901932 40.6875 68.875 C40.62834458 62.21329643 40.56608285 55.55165291 40.49562073 48.89005852 C40.46897945 46.2144499 40.44820373 43.53883549 40.4276123 40.86317444 C40.41101268 39.22852286 40.39414113 37.59387401 40.37695312 35.95922852 C40.37276871 35.21058029 40.36858429 34.46193207 40.36427307 33.69059753 C40.38125069 29.87485439 40.38125069 29.87485439 39.1875 26.3125 C37.5375 26.3125 35.8875 26.3125 34.1875 26.3125 C33.91679688 27.02535156 33.64609375 27.73820312 33.3671875 28.47265625 C32.17437548 31.34409445 30.77956519 34.00970466 29.3125 36.75 C25.98160611 43.40370309 23.89036298 50.08959488 22.1875 57.3125 C22.00944824 58.05532227 21.83139648 58.79814453 21.64794922 59.56347656 C19.04436999 70.67481469 17.67317416 81.45389105 17.36328125 92.859375 C17.24324653 97.06333915 16.7721473 101.14867048 16.1875 105.3125 C13.58648714 106.17750888 10.98243589 107.02976928 8.375 107.875 C7.26801758 108.2452832 7.26801758 108.2452832 6.13867188 108.62304688 C0.52734375 110.42578125 0.52734375 110.42578125 -2.8125 109.3125 C-2.82058685 108.1791069 -2.82867371 107.04571381 -2.83700562 105.87797546 C-2.91440776 95.20960374 -3.00213195 84.54136049 -3.10002708 73.87315655 C-3.15002541 68.38820118 -3.19635514 62.90326541 -3.234375 57.41821289 C-3.2711831 52.12727299 -3.31753084 46.83649564 -3.37056351 41.54569435 C-3.38913128 39.52466488 -3.40423037 37.50360054 -3.41584396 35.48251915 C-3.43266565 32.65703981 -3.46169073 29.83193468 -3.49365234 27.0065918 C-3.49581253 26.16646042 -3.49797272 25.32632904 -3.50019836 24.46073914 C-3.55660574 20.57099656 -3.6060391 18.62219135 -5.8125 15.3125 C-10.47649644 15.44020647 -10.47649644 15.44020647 -14.390625 17.71484375 C-15.60094931 19.19296971 -16.71470903 20.74897953 -17.8125 22.3125 C-21.55528215 20.8636811 -21.55528215 20.8636811 -22.6875 18.4375 C-22.84037435 15.83863603 -22.14704536 14.5105747 -20.8125 12.3125 C-20.1525 12.3125 -19.4925 12.3125 -18.8125 12.3125 C-18.55339844 11.71695313 -18.29429687 11.12140625 -18.02734375 10.5078125 C-16.72356383 8.15178576 -15.44459396 6.88768257 -13.375 5.1875 C-12.77816406 4.68992187 -12.18132813 4.19234375 -11.56640625 3.6796875 C-7.4563051 0.47582246 -5.17833785 0.01654421 0 0 Z " fill="#000000" transform="translate(770.8125,121.6875)"/>
<path d="M0 0 C5.42063193 4.8053743 10.27616261 9.9697034 12.99609375 16.76953125 C13.3415625 17.57519531 13.68703125 18.38085938 14.04296875 19.2109375 C15.41192963 24.32209882 15.36462068 29.25045167 15.37109375 34.51953125 C15.39558594 35.55335937 15.42007813 36.5871875 15.4453125 37.65234375 C15.47253065 44.85608086 14.15675732 50.31549905 10.99609375 56.76953125 C10.61727051 57.55634277 10.23844727 58.3431543 9.84814453 59.15380859 C8.92156261 61.03776271 7.96252272 62.90570395 6.99609375 64.76953125 C6.33609375 64.76953125 5.67609375 64.76953125 4.99609375 64.76953125 C4.99609375 65.75953125 4.99609375 66.74953125 4.99609375 67.76953125 C4.33609375 67.76953125 3.67609375 67.76953125 2.99609375 67.76953125 C2.76277344 68.32253906 2.52945313 68.87554687 2.2890625 69.4453125 C-4.69199826 81.99434922 -19.8290746 90.35492797 -33.00390625 94.76953125 C-33.99390625 94.76953125 -34.98390625 94.76953125 -36.00390625 94.76953125 C-32.47699372 100.61678096 -28.38107482 105.85171348 -23.94140625 111.01953125 C-23.43512695 111.60943848 -22.92884766 112.1993457 -22.40722656 112.80712891 C-16.24709871 120.62185358 -16.24709871 120.62185358 -7.91015625 125.24609375 C0.29282193 125.75212162 4.98173391 122.00332526 10.99609375 116.76953125 C11.55167969 116.18558594 12.10726562 115.60164063 12.6796875 115 C13.11410156 114.59394531 13.54851562 114.18789062 13.99609375 113.76953125 C16.12109375 113.89453125 16.12109375 113.89453125 17.99609375 114.76953125 C18.32609375 115.75953125 18.65609375 116.74953125 18.99609375 117.76953125 C17.01560141 121.65978406 14.89265049 125.4779895 11.99609375 128.76953125 C11.33609375 128.76953125 10.67609375 128.76953125 9.99609375 128.76953125 C9.99609375 129.42953125 9.99609375 130.08953125 9.99609375 130.76953125 C9.33609375 130.76953125 8.67609375 130.76953125 7.99609375 130.76953125 C7.66609375 131.75953125 7.33609375 132.74953125 6.99609375 133.76953125 C6.33609375 133.76953125 5.67609375 133.76953125 4.99609375 133.76953125 C4.99609375 134.42953125 4.99609375 135.08953125 4.99609375 135.76953125 C-1.31503239 141.03595851 -7.68957711 144.13360943 -16.00390625 143.64453125 C-20.82526331 143.0473907 -23.99993794 141.46785772 -28.00390625 138.76953125 C-28.00390625 138.10953125 -28.00390625 137.44953125 -28.00390625 136.76953125 C-28.89335938 136.3828125 -28.89335938 136.3828125 -29.80078125 135.98828125 C-32.1805159 134.6718323 -33.51369417 133.34372343 -35.25390625 131.26953125 C-35.7746875 130.66109375 -36.29546875 130.05265625 -36.83203125 129.42578125 C-38.00390625 127.76953125 -38.00390625 127.76953125 -38.00390625 125.76953125 C-38.66390625 125.76953125 -39.32390625 125.76953125 -40.00390625 125.76953125 C-43.00390625 122.30799279 -43.00390625 122.30799279 -43.00390625 119.76953125 C-43.66390625 119.76953125 -44.32390625 119.76953125 -45.00390625 119.76953125 C-46.29296875 118.30859375 -46.29296875 118.30859375 -47.62890625 116.39453125 C-48.07492187 115.76804687 -48.5209375 115.1415625 -48.98046875 114.49609375 C-50.00390625 112.76953125 -50.00390625 112.76953125 -50.00390625 110.76953125 C-50.66390625 110.76953125 -51.32390625 110.76953125 -52.00390625 110.76953125 C-53.86726522 108.76968421 -55.56272191 106.78174223 -57.25390625 104.64453125 C-57.9809375 103.78988281 -57.9809375 103.78988281 -58.72265625 102.91796875 C-61.09489608 99.91858505 -62.04877625 98.32776682 -61.73828125 94.46484375 C-60.00390625 91.76953125 -60.00390625 91.76953125 -56.828125 90.52734375 C-55.56613281 90.27726562 -54.30414062 90.0271875 -53.00390625 89.76953125 C-42.69470195 86.83703433 -34.62829974 83.31937321 -26.00390625 76.76953125 C-25.32714844 76.28742188 -24.65039062 75.8053125 -23.953125 75.30859375 C-16.87313199 69.87693614 -10.30445805 59.88762001 -8.44921875 51.16015625 C-7.90698547 47.03157301 -7.78152237 42.99170898 -7.75390625 38.83203125 C-7.73328125 38.05923828 -7.71265625 37.28644531 -7.69140625 36.49023438 C-7.63054504 27.49038261 -11.26311649 20.60155979 -17.56640625 14.14453125 C-27.55591286 6.56036039 -40.00864363 6.46215854 -52.00390625 7.76953125 C-65.73053058 10.18924087 -78.97882705 17.1137576 -90.015625 25.38671875 C-92.00390625 26.76953125 -92.00390625 26.76953125 -95.00390625 27.76953125 C-95.00390625 28.42953125 -95.00390625 29.08953125 -95.00390625 29.76953125 C-97.31640625 30.45703125 -97.31640625 30.45703125 -100.00390625 30.76953125 C-101.87890625 29.58203125 -101.87890625 29.58203125 -103.00390625 27.76953125 C-102.80640724 24.76244962 -102.02521279 23.79045111 -99.8515625 21.65625 C-74.65397187 1.75969526 -31.11680345 -23.2346642 0 0 Z " fill="#000000" transform="translate(615.00390625,88.23046875)"/>
<path d="M0 0 C3.56988725 3.02520342 6.23104318 6.78502805 8.89453125 10.60546875 C4.92380387 15.21663603 0.72574457 17.78587481 -5.10546875 19.60546875 C-8.88492619 19.69136551 -9.78775414 18.90689031 -12.54296875 16.29296875 C-13.81140625 14.96265625 -13.81140625 14.96265625 -15.10546875 13.60546875 C-21.21983233 9.20312698 -25.68653594 7.82452845 -33.10546875 8.60546875 C-40.73137421 10.40107202 -47.04459397 13.53241902 -52.10546875 19.60546875 C-54.0791739 22.82784451 -55.65899921 26.11824374 -57.10546875 29.60546875 C-57.46382812 30.35441406 -57.8221875 31.10335937 -58.19140625 31.875 C-59.44746845 35.62708323 -59.65977462 39.23266287 -59.85546875 43.16796875 C-59.89567139 43.9671875 -59.93587402 44.76640625 -59.97729492 45.58984375 C-60.36827592 55.78613561 -59.46630097 68.001545 -52.7578125 76.265625 C-48.6714302 80.00330268 -44.20720334 81.56485684 -38.71875 81.63671875 C-31.99206236 81.2246705 -26.23841441 79.7455186 -21.3828125 74.87890625 C-11.65377747 62.87896624 -11.76120597 46.32504376 -11.10546875 31.60546875 C-7.10546875 29.60546875 -3.10546875 27.60546875 0.89453125 25.60546875 C1.6009375 25.19039062 2.30734375 24.7753125 3.03515625 24.34765625 C4.89453125 23.60546875 4.89453125 23.60546875 8.89453125 24.60546875 C9.22453125 43.74546875 9.55453125 62.88546875 9.89453125 82.60546875 C16.05616899 82.60546875 16.80289342 82.58020264 20.89453125 78.60546875 C21.22453125 77.94546875 21.55453125 77.28546875 21.89453125 76.60546875 C23.54453125 76.93546875 25.19453125 77.26546875 26.89453125 77.60546875 C27.64453125 79.16796875 27.64453125 79.16796875 27.89453125 81.60546875 C25.08218165 87.81607411 20.7515844 93.66731558 14.546875 96.78515625 C11.55049797 97.71187079 9.0283514 97.90597709 5.89453125 97.91796875 C4.88390625 97.93472656 3.87328125 97.95148438 2.83203125 97.96875 C-1.29820097 97.4579633 -3.90789397 96.00109208 -6.6171875 92.84375 C-9.48224979 88.15113966 -11.04442812 84.00713014 -12.10546875 78.60546875 C-12.51539063 79.18296875 -12.9253125 79.76046875 -13.34765625 80.35546875 C-13.88648438 81.09796875 -14.4253125 81.84046875 -14.98046875 82.60546875 C-15.51414062 83.34796875 -16.0478125 84.09046875 -16.59765625 84.85546875 C-17.09523438 85.43296875 -17.5928125 86.01046875 -18.10546875 86.60546875 C-18.76546875 86.60546875 -19.42546875 86.60546875 -20.10546875 86.60546875 C-20.48251953 87.49878906 -20.48251953 87.49878906 -20.8671875 88.41015625 C-22.26720759 90.89221079 -23.62735772 92.05740295 -25.91796875 93.73046875 C-26.58441406 94.22804688 -27.25085937 94.725625 -27.9375 95.23828125 C-34.98623852 99.68343167 -43.74812817 100.50847133 -51.85546875 98.91796875 C-61.41093469 96.27900433 -67.44521925 91.70588458 -72.58203125 83.14453125 C-80.04771466 68.95536687 -80.78728882 50.04814662 -76.66772461 34.62792969 C-74.31333078 27.24181258 -70.69077235 20.8206196 -66.10546875 14.60546875 C-65.32042969 13.46851563 -65.32042969 13.46851563 -64.51953125 12.30859375 C-64.05289062 11.7465625 -63.58625 11.18453125 -63.10546875 10.60546875 C-62.44546875 10.60546875 -61.78546875 10.60546875 -61.10546875 10.60546875 C-60.72261719 9.70828125 -60.72261719 9.70828125 -60.33203125 8.79296875 C-56.96574789 2.78940606 -49.26839193 -0.81230087 -43.10546875 -3.39453125 C-42.05166016 -3.84505859 -42.05166016 -3.84505859 -40.9765625 -4.3046875 C-27.86252091 -9.07544713 -11.66006695 -7.71796692 0 0 Z " fill="#000000" transform="translate(1203.10546875,132.39453125)"/>
<path d="M0 0 C0.66 0.66 1.32 1.32 2 2 C1.89086684 5.05572862 0.99711333 6.00278993 -1.21484375 8.140625 C-2.11332031 8.83671875 -3.01179687 9.5328125 -3.9375 10.25 C-5.28134766 11.30960938 -5.28134766 11.30960938 -6.65234375 12.390625 C-9 14 -9 14 -11 14 C-11 14.66 -11 15.32 -11 16 C-12.375 17.625 -12.375 17.625 -14 19 C-14.66 19 -15.32 19 -16 19 C-16.495 20.485 -16.495 20.485 -17 22 C-17.66 22 -18.32 22 -19 22 C-19.2784375 22.55816406 -19.556875 23.11632812 -19.84375 23.69140625 C-20.63127669 25.26379907 -21.42312041 26.83403542 -22.21875 28.40234375 C-22.6415625 29.23894531 -23.064375 30.07554687 -23.5 30.9375 C-23.9228125 31.77152344 -24.345625 32.60554688 -24.78125 33.46484375 C-30.53068324 45.42440199 -30.55884308 58.48892662 -26.26171875 70.98828125 C-22.6612091 79.58268663 -17.01506214 86.95429953 -8.375 90.875 C0.42894111 93.74696526 9.62439319 92.49890068 18 89 C18.99 88.67 19.98 88.34 21 88 C21 87.34 21 86.68 21 86 C21.7425 85.319375 22.485 84.63875 23.25 83.9375 C28.96368034 78.27265454 30.4052478 71.97200858 30.5 64.0625 C30.36874726 54.01992328 27.10663133 47.0668243 21.3671875 39.0078125 C20 37 20 37 19.0703125 34.8671875 C17.71423551 32.50147654 16.46065168 32.09108674 14 31 C12.75409246 30.04222525 11.52536957 29.06178247 10.3125 28.0625 C5.03550736 24.01844956 -0.64050942 22.56122629 -7 21 C-6.37808368 15.39303571 -3.7015796 13.48814777 0.45703125 10.00390625 C9.94975152 2.5234677 9.94975152 2.5234677 14.9375 1.25 C25.28385286 3.7838007 32.57437818 11.36629665 37.9453125 20.19921875 C46.50033376 36.18171663 48.19118015 52.68291728 43 70 C37.36868597 84.82102434 28.76145242 97.07647374 14.31640625 104.3515625 C3.69738901 108.84484529 -7.96557845 109.38902903 -19 106 C-25.63561234 103.22327726 -31.88167678 100.11832322 -37 95 C-37 94.34 -37 93.68 -37 93 C-37.66 93 -38.32 93 -39 93 C-47.75673862 82.70291941 -51.63100353 70.85750039 -50.75 57.375 C-49.54318578 45.61202921 -46.82995464 32.29474208 -39 23 C-38.34 23 -37.68 23 -37 23 C-36.7525 22.443125 -36.505 21.88625 -36.25 21.3125 C-34.77075182 18.57589087 -33.06532561 16.32349131 -31 14 C-30.34 14 -29.68 14 -29 14 C-29 13.34 -29 12.68 -29 12 C-22.62055023 6.52719038 -8.46703376 -3.00443133 0 0 Z " fill="#000000" transform="translate(959,124)"/>
<path d="M0 0 C5.14660931 4.6078988 8.56089079 9.21441636 9.37109375 16.19921875 C9.52897941 24.49285983 8.42440269 29.99248796 4 37 C3.443125 38.03125 2.88625 39.0625 2.3125 40.125 C1.879375 40.74375 1.44625 41.3625 1 42 C0.34 42 -0.32 42 -1 42 C-1.35384766 42.83724609 -1.35384766 42.83724609 -1.71484375 43.69140625 C-9.38388359 57.46770578 -28.99549586 70.51643327 -43 77 C-43.99 77 -44.98 77 -46 77 C-45.505 77.78375 -45.01 78.5675 -44.5 79.375 C-43 82 -43 82 -43 84 C-42.46375 84.268125 -41.9275 84.53625 -41.375 84.8125 C-39.57492284 85.71253858 -37.78495667 86.63283507 -36 87.5625 C-28.18059376 91.30929882 -18.80955103 91.14106865 -10.4765625 89.1640625 C-2.19494286 86.23303797 4.65016524 81.68204171 10.63671875 75.23828125 C11.08660156 74.82964844 11.53648437 74.42101562 12 74 C14.1875 74.3125 14.1875 74.3125 16 75 C16.6875 77.25 16.6875 77.25 17 80 C15.6875 82.3125 15.6875 82.3125 14 84 C13.34 84 12.68 84 12 84 C11.75121094 84.58007812 11.50242187 85.16015625 11.24609375 85.7578125 C6.02056545 95.16048726 -6.22782233 101.0838004 -16.046875 104.4765625 C-28.25283266 107.74775915 -41.97137081 107.01020952 -53.0625 100.9375 C-63.92816462 94.1918496 -71.20509283 85.73925718 -74.8125 73.4375 C-78.6523045 56.19129236 -75.40592417 38.92446594 -66 24 C-57.00880606 10.99033164 -43.89466367 0.64108288 -28.49609375 -3.70703125 C-18.95020974 -4.82744017 -8.32558149 -5.50438997 0 0 Z M-43 15 C-43 15.66 -43 16.32 -43 17 C-43.59683594 17.24492187 -44.19367187 17.48984375 -44.80859375 17.7421875 C-50.97235651 21.28003351 -53.97989908 29.51441283 -56 36 C-58.28717281 47.27592188 -58.21791976 59.56416049 -53 70 C-37.44352059 65.44190618 -22.47999074 49.58149911 -14 36 C-11.678312 29.3242429 -10.76781768 23.32689227 -13.25 16.625 C-15.5377107 13.19343395 -17.34444816 11.49219109 -21.3125 10.3125 C-29.38385551 9.37397029 -36.19552836 10.46368557 -43 15 Z " fill="#000000" transform="translate(721,126)"/>
<path d="M0 0 C5.32889221 0.6269285 9.05771065 2.83626199 12.64453125 6.83203125 C18.21296905 13.91790222 19.7725713 20.07110217 19 29 C17.79327887 37.51873431 14.38051561 44.47483235 10.2421875 51.8828125 C7.78843234 56.30645348 5.63757854 60.85460174 3.5 65.4375 C-2.1143903 77.41959168 -7.99809202 89.23092002 -14.26391602 100.88598633 C-16.59313395 105.21921063 -18.83617241 109.58218535 -21 114 C-22.41279706 114.16301505 -23.83108128 114.2788797 -25.25 114.375 C-26.43335938 114.47941406 -26.43335938 114.47941406 -27.640625 114.5859375 C-30 114 -30 114 -32.05859375 111.50390625 C-34.31822552 107.68424 -36.06931734 103.63692693 -37.8125 99.5625 C-38.51574758 97.94870424 -39.22019278 96.33542989 -39.92578125 94.72265625 C-40.44906006 93.52406982 -40.44906006 93.52406982 -40.98291016 92.30126953 C-42.43764792 89.00977693 -43.96274315 85.75357295 -45.5 82.5 C-48.0759255 77.03250432 -50.55811661 71.52861593 -53 66 C-57.7924793 55.1606108 -62.67504315 44.36977247 -68.15234375 33.85546875 C-69 32 -69 32 -69 30 C-72.14842811 28.13426482 -74.35252375 27.64414866 -78 28 C-80.73774618 28.92745649 -80.73774618 28.92745649 -83 30 C-84.1875 28.4375 -84.1875 28.4375 -85 26 C-82.74888185 18.54317113 -78.25227304 13.11884815 -71.625 9.0625 C-67.10181644 6.76283428 -64.02931157 6.24560326 -59 7 C-54.85369448 9.71763976 -53.02005415 12.30161435 -51.0625 16.8125 C-50.5571875 17.96621094 -50.051875 19.11992187 -49.53125 20.30859375 C-47.74622474 24.61177965 -46.01888624 28.93571305 -44.31835938 33.27294922 C-42.29679504 38.38301463 -40.02857353 43.34706533 -37.67382812 48.31079102 C-35.25242598 53.42315512 -32.96430207 58.58489896 -30.7109375 63.77319336 C-28.3559274 69.19462286 -25.96603758 74.59991345 -23.5625 80 C-23.20808838 80.79639893 -22.85367676 81.59279785 -22.48852539 82.41333008 C-21.65940114 84.27572448 -20.82976018 86.13788884 -20 88 C-17.54562056 85.79110219 -16.25799274 83.77443002 -14.94921875 80.75390625 C-14.58320557 79.92189697 -14.21719238 79.0898877 -13.84008789 78.23266602 C-13.45973389 77.35151123 -13.07937988 76.47035645 -12.6875 75.5625 C-9.68920854 68.74497816 -6.61206746 62.02733277 -3.19140625 55.41015625 C0.04505229 48.8629598 1.40996777 43.54475048 -0.8046875 36.40625 C-3.42439997 30.40801179 -6.40594984 27.44912545 -12.20703125 24.44921875 C-14 23 -14 23 -14.55859375 20.73828125 C-13.77950171 16.91909578 -11.67398513 14.43465615 -9.25 11.5 C-8.58484375 10.66662109 -8.58484375 10.66662109 -7.90625 9.81640625 C-6.61475308 8.2020351 -5.30837872 6.60069754 -4 5 C-2.66557477 3.33420743 -1.33181487 1.6678803 0 0 Z " fill="#000000" transform="translate(1096,117)"/>
<path d="M0 0 C0.1167479 14.42068993 0.20461369 28.8413067 0.25906086 43.26237202 C0.2851888 49.95820865 0.3200252 56.6537184 0.37719727 63.34936523 C0.43140146 69.80733046 0.46139645 76.26499042 0.47438622 82.72316551 C0.48364683 85.19084672 0.50172998 87.65851065 0.52865028 90.12606239 C0.56478496 93.57440323 0.56995167 97.02147197 0.56762695 100.4699707 C0.58560333 101.49711685 0.60357971 102.524263 0.62210083 103.58253479 C0.60326701 106.15304066 0.5519937 108.48967762 0 111 C-2.34968567 113.07145691 -2.34968567 113.07145691 -5 114 C-5.98097656 114.45761719 -6.96195313 114.91523438 -7.97265625 115.38671875 C-8.99230469 115.81597656 -10.01195312 116.24523437 -11.0625 116.6875 C-12.08472656 117.12449219 -13.10695313 117.56148438 -14.16015625 118.01171875 C-17 119 -17 119 -21 119 C-21.84907424 112.45249675 -22.11347994 106.11976761 -22.02172852 99.52319336 C-22.01212097 98.51726135 -22.00251343 97.51132935 -21.99261475 96.47491455 C-21.95987139 93.1798141 -21.91944659 89.88485669 -21.87890625 86.58984375 C-21.85458098 84.29342642 -21.83073865 81.99700392 -21.80735779 79.70057678 C-21.74475633 73.67870163 -21.67562275 67.65691876 -21.60510254 61.63513184 C-21.53420194 55.4814064 -21.46951531 49.32761594 -21.40429688 43.17382812 C-21.27559341 31.11581393 -21.13998515 19.05788813 -21 7 C-19.41566638 6.19086223 -17.82933855 5.38562848 -16.2421875 4.58203125 C-15.35901855 4.1331958 -14.47584961 3.68436035 -13.56591797 3.22192383 C-9.00514577 1.05002422 -5.10715131 0 0 0 Z " fill="#000000" transform="translate(545,112)"/>
<path d="M0 0 C2.53626251 -0.37473011 2.53626251 -0.37473011 5.80773926 -0.3742218 C7.66284874 -0.38474327 7.66284874 -0.38474327 9.55543518 -0.39547729 C10.93344277 -0.38804892 12.31144875 -0.38031775 13.68945312 -0.37231445 C15.13476321 -0.37474133 16.58007161 -0.37845964 18.02537537 -0.38337708 C21.95717318 -0.39280408 25.88872285 -0.38334563 29.82050133 -0.37004495 C33.92887803 -0.35875252 38.03724212 -0.36283624 42.14562988 -0.36479187 C49.04585845 -0.36567555 55.9459889 -0.35457909 62.84619141 -0.33618164 C70.83170122 -0.31501286 78.81706725 -0.31150369 86.80259943 -0.3177436 C94.47420818 -0.32343204 102.14576613 -0.31779775 109.81736755 -0.30657005 C113.08687781 -0.30191715 116.35635707 -0.30105319 119.62586975 -0.3031559 C123.47375974 -0.30503518 127.32150274 -0.29696281 131.16935921 -0.2810955 C132.58433995 -0.27684148 133.99933558 -0.27600957 135.41431999 -0.27878571 C137.34030701 -0.28199197 139.26630266 -0.27172949 141.19226074 -0.26069641 C142.27184807 -0.25864354 143.35143539 -0.25659067 144.46373749 -0.25447559 C147 0 147 0 149 2 C100.16 2 51.32 2 1 2 C0.34 3.32 -0.32 4.64 -1 6 C-1.99 6.495 -1.99 6.495 -3 7 C-2.38722388 4.03824877 -1.74627478 2.61941217 0 0 Z " fill="#1F8BFE" transform="translate(148,40)"/>
<path d="M0 0 C0.10714866 20.36154152 0.12654945 40.66175908 -1 61 C-1.33 61 -1.66 61 -2 61 C-2 41.53 -2 22.06 -2 2 C-5.96 3.32 -9.92 4.64 -14 6 C-14.66 6 -15.32 6 -16 6 C-16 5.34 -16 4.68 -16 4 C-14.08594633 3.32586789 -12.16863974 2.6609668 -10.25 2 C-9.18265625 1.62875 -8.1153125 1.2575 -7.015625 0.875 C-4 0 -4 0 0 0 Z " fill="#090A0E" transform="translate(545,112)"/>
<path d="M0 0 C1.21134026 3.63402077 0.6885609 4.20353987 -0.875 7.5625 C-2.82359498 12.1069972 -3.52414952 16.04855754 -3.7265625 20.96875 C-4 23 -4 23 -6 25 C-6.66056461 15.76677471 -5.68967489 9.05701521 -1 1 C-0.67 0.67 -0.34 0.34 0 0 Z " fill="#0A0B0B" transform="translate(1147,154)"/>
<path d="M0 0 C0.33 0 0.66 0 1 0 C1.05398987 2.27057377 1.09278742 4.54151288 1.125 6.8125 C1.14820313 8.07707031 1.17140625 9.34164062 1.1953125 10.64453125 C1 14 1 14 -1 17 C-2.14237655 13.47909316 -1.95528861 10.47691824 -1.625 6.8125 C-1.53476563 5.74644531 -1.44453125 4.68039063 -1.3515625 3.58203125 C-1 1 -1 1 0 0 Z " fill="#0E0E0F" transform="translate(1193,168)"/>
<path d="M0 0 C0 3.63151113 -1.01440206 5.10282446 -2.875 8.1875 C-3.40867187 9.08855469 -3.94234375 9.98960937 -4.4921875 10.91796875 C-4.98976563 11.60503906 -5.48734375 12.29210937 -6 13 C-6.66 13 -7.32 13 -8 13 C-6.40956621 7.91061189 -3.2553049 4.12543357 0 0 Z " fill="#2320CC" transform="translate(296,234)"/>
<path d="M0 0 C0.66 0.33 1.32 0.66 2 1 C0.02 3.97 -1.96 6.94 -4 10 C-5 6 -5 6 -4.00390625 4.296875 C-2.66927083 2.86458333 -1.33463542 1.43229167 0 0 Z " fill="#0B81FF" transform="translate(67,161)"/>
<path d="M0 0 C0.66 0.33 1.32 0.66 2 1 C-0.475 5.455 -0.475 5.455 -3 10 C-4 6 -4 6 -2.0625 2.75 C-1.381875 1.8425 -0.70125 0.935 0 0 Z " fill="#0A81FF" transform="translate(127,71)"/>
</svg>
